<?xml version="1.0" encoding="UTF-8"?>
<!DOCTYPE svg PUBLIC "-//W3C//DTD SVG 1.1//EN" "http://www.w3.org/Graphics/SVG/1.1/DTD/svg11.dtd">
<svg xmlns="http://www.w3.org/2000/svg" version="1.1" width="204px" height="204px" style="shape-rendering:geometricPrecision; text-rendering:geometricPrecision; image-rendering:optimizeQuality; fill-rule:evenodd; clip-rule:evenodd" xmlns:xlink="http://www.w3.org/1999/xlink">
<g><path style="opacity:1" fill="#fdfdfd" d="M -0.5,-0.5 C 29.5,-0.5 59.5,-0.5 89.5,-0.5C 50.414,6.63536 22.5807,28.302 6,64.5C 3.49548,73.5473 1.32881,82.5473 -0.5,91.5C -0.5,60.8333 -0.5,30.1667 -0.5,-0.5 Z"/></g>
<g><path style="opacity:1" fill="#4b4b4b" d="M 89.5,-0.5 C 96.1667,-0.5 102.833,-0.5 109.5,-0.5C 109.5,14.8333 109.5,30.1667 109.5,45.5C 104.167,45.5 98.8333,45.5 93.5,45.5C 93.5,35.8333 93.5,26.1667 93.5,16.5C 91.2646,16.2053 89.2646,16.5386 87.5,17.5C 58.7891,22.7909 37.6224,38.4575 24,64.5C 8.09731,105.098 16.264,139.931 48.5,169C 83.7526,193.582 119.086,193.582 154.5,169C 186.736,139.931 194.903,105.098 179,64.5C 176.833,61 174.667,57.5 172.5,54C 177.015,50.4304 181.682,47.4304 186.5,45C 190.367,51.2294 193.867,57.7294 197,64.5C 199.505,73.5514 201.672,82.5514 203.5,91.5C 203.5,96.8333 203.5,102.167 203.5,107.5C 195.848,162.149 164.848,194.149 110.5,203.5C 103.5,203.5 96.5,203.5 89.5,203.5C 37.3817,193.381 7.38174,162.048 -0.5,109.5C -0.5,103.5 -0.5,97.5 -0.5,91.5C 1.32881,82.5473 3.49548,73.5473 6,64.5C 22.5807,28.302 50.414,6.63536 89.5,-0.5 Z"/></g>
<g><path style="opacity:1" fill="#b6b6b6" d="M 109.5,-0.5 C 109.833,-0.5 110.167,-0.5 110.5,-0.5C 110.5,15.1667 110.5,30.8333 110.5,46.5C 104.5,46.5 98.5,46.5 92.5,46.5C 92.5,36.8333 92.5,27.1667 92.5,17.5C 90.8333,17.5 89.1667,17.5 87.5,17.5C 89.2646,16.5386 91.2646,16.2053 93.5,16.5C 93.5,26.1667 93.5,35.8333 93.5,45.5C 98.8333,45.5 104.167,45.5 109.5,45.5C 109.5,30.1667 109.5,14.8333 109.5,-0.5 Z"/></g>
<g><path style="opacity:1" fill="#fefefe" d="M 110.5,-0.5 C 141.5,-0.5 172.5,-0.5 203.5,-0.5C 203.5,30.1667 203.5,60.8333 203.5,91.5C 201.672,82.5514 199.505,73.5514 197,64.5C 193.867,57.7294 190.367,51.2294 186.5,45C 181.682,47.4304 177.015,50.4304 172.5,54C 174.667,57.5 176.833,61 179,64.5C 194.903,105.098 186.736,139.931 154.5,169C 119.086,193.582 83.7526,193.582 48.5,169C 16.264,139.931 8.09731,105.098 24,64.5C 37.6224,38.4575 58.7891,22.7909 87.5,17.5C 89.1667,17.5 90.8333,17.5 92.5,17.5C 92.5,27.1667 92.5,36.8333 92.5,46.5C 98.5,46.5 104.5,46.5 110.5,46.5C 110.5,30.8333 110.5,15.1667 110.5,-0.5 Z"/></g>
<g><path style="opacity:1" fill="#4b4b4b" d="M 58.5,47.5 C 61.8934,47.0617 64.8934,47.8951 67.5,50C 82.6667,65.1667 97.8333,80.3333 113,95.5C 116.41,108.845 111.243,115.012 97.5,114C 95.6951,113.028 94.0284,111.861 92.5,110.5C 80.1924,93.6919 67.6924,77.0252 55,60.5C 52.1858,54.9385 53.3525,50.6051 58.5,47.5 Z"/></g>
<g><path style="opacity:1" fill="#fcfcfc" d="M 203.5,107.5 C 203.5,139.5 203.5,171.5 203.5,203.5C 172.5,203.5 141.5,203.5 110.5,203.5C 164.848,194.149 195.848,162.149 203.5,107.5 Z"/></g>
<g><path style="opacity:1" fill="#fcfcfc" d="M -0.5,109.5 C 7.38174,162.048 37.3817,193.381 89.5,203.5C 59.5,203.5 29.5,203.5 -0.5,203.5C -0.5,172.167 -0.5,140.833 -0.5,109.5 Z"/></g>
</svg>
